<?xml version="1.0" standalone="no"?>
<!DOCTYPE svg PUBLIC "-//W3C//DTD SVG 20010904//EN"
 "http://www.w3.org/TR/2001/REC-SVG-20010904/DTD/svg10.dtd">
<svg version="1.0" xmlns="http://www.w3.org/2000/svg"
 width="500.000000pt" height="500.000000pt" viewBox="0 0 500.000000 500.000000"
 preserveAspectRatio="xMidYMid meet">

<g transform="translate(0.000000,500.000000) scale(0.100000,-0.100000)"
fill="#000000" stroke="none">
<path d="M0 2500 l0 -2500 2500 0 2500 0 0 2500 0 2500 -2500 0 -2500 0 0
-2500z m2151 972 c75 -25 149 -83 179 -142 44 -87 45 -243 0 -330 -30 -59
-103 -117 -179 -141 -52 -17 -99 -23 -228 -27 l-163 -4 0 -219 c0 -169 3 -219
13 -219 32 0 87 -22 87 -35 0 -13 -28 -15 -170 -15 -139 0 -170 3 -170 14 0 9
20 19 50 26 l50 12 0 528 0 528 -47 8 c-34 7 -49 14 -51 28 -4 17 9 18 280 14
257 -4 289 -6 349 -26z m627 -49 c-2 -12 -18 -21 -51 -27 l-48 -8 3 -437 c3
-428 3 -437 25 -477 56 -105 131 -146 278 -152 85 -3 109 -1 159 19 75 28 146
93 177 162 24 52 24 56 27 462 l3 411 -58 15 c-37 10 -58 20 -58 30 0 11 24
15 128 17 117 2 128 1 125 -15 -2 -10 -21 -23 -50 -32 l-47 -14 -3 -416 c-3
-408 -4 -417 -26 -473 -48 -118 -164 -198 -321 -219 -214 -29 -393 53 -468
215 l-28 61 -5 420 -5 419 -45 11 c-29 7 -46 17 -48 28 -3 15 12 17 168 17
158 0 171 -1 168 -17z m-862 -1394 c13 -12 24 -31 24 -41 0 -24 -36 -24 -50 1
-20 39 -91 37 -111 -2 -17 -30 -13 -96 7 -118 23 -25 76 -25 99 1 21 24 55 26
55 5 0 -9 -11 -27 -25 -40 -19 -20 -34 -25 -76 -25 -45 0 -55 4 -85 34 -29 29
-34 41 -34 80 0 90 49 140 128 132 27 -2 52 -12 68 -27z m144 -94 c0 -118 -1
-125 -20 -125 -19 0 -20 7 -20 125 0 118 1 125 20 125 19 0 20 -7 20 -125z
m202 115 c59 -17 78 -80 37 -121 l-22 -22 22 -44 c26 -54 26 -53 -2 -53 -18 0
-29 11 -47 50 -16 33 -30 50 -42 50 -15 0 -18 -8 -18 -50 0 -43 -3 -50 -20
-50 -19 0 -20 7 -20 125 l0 125 38 0 c20 0 54 -5 74 -10z m325 -25 c34 -34 37
-55 6 -55 -9 0 -26 11 -39 25 -28 30 -53 32 -88 4 -21 -16 -26 -29 -26 -63 0
-57 22 -86 66 -86 22 0 40 7 51 20 10 11 25 20 35 20 27 0 22 -35 -8 -59 -33
-26 -109 -28 -142 -5 -50 35 -65 108 -36 170 20 42 56 63 108 64 30 0 45 -7
73 -35z m151 -72 l3 -102 52 -3 c40 -2 53 -7 55 -20 3 -16 -6 -18 -77 -18
l-81 0 0 118 c0 65 3 122 7 126 4 4 14 5 23 4 12 -3 16 -23 18 -105z m342 87
c0 -18 -7 -20 -55 -20 l-55 0 0 -35 0 -35 50 0 c38 0 50 -4 50 -15 0 -11 -12
-15 -50 -15 l-50 0 0 -35 0 -35 55 0 c48 0 55 -2 55 -20 0 -18 -7 -20 -80 -20
l-80 0 0 118 c0 65 3 122 7 125 3 4 39 7 80 7 66 0 73 -2 73 -20z"/>
<path d="M1768 3454 c-5 -4 -8 -137 -8 -296 l0 -288 123 0 c187 0 254 26 297
115 50 103 46 287 -8 374 -46 75 -96 94 -260 99 -76 2 -140 1 -144 -4z"/>
<path d="M2190 1980 c0 -39 1 -40 35 -40 30 0 55 19 55 44 0 15 -35 36 -61 36
-27 0 -29 -2 -29 -40z"/>
</g>
</svg>
